<?xml version="1.0" standalone="no"?>
<!DOCTYPE svg PUBLIC "-//W3C//DTD SVG 20010904//EN"
 "http://www.w3.org/TR/2001/REC-SVG-20010904/DTD/svg10.dtd">
<svg version="1.0" xmlns="http://www.w3.org/2000/svg"
 width="2852.000000pt" height="2885.000000pt" viewBox="0 0 2852.000000 2885.000000"
 preserveAspectRatio="xMidYMid meet">

<g transform="translate(0.000000,2885.000000) scale(0.100000,-0.100000)"
fill="#000000" stroke="none">
<path d="M17276 18873 c-3 -10 -609 -1991 -1346 -4403 -738 -2412 -1343 -4393
-1346 -4402 -5 -17 38 -18 808 -18 l813 0 1329 4348 c732 2391 1340 4380 1352
4420 l22 72 -813 0 c-766 0 -814 -1 -819 -17z"/>
<path d="M6620 14450 l0 -4401 1333 4 c1191 3 1343 5 1437 20 436 70 730 206
970 446 302 303 490 761 570 1386 43 336 44 417 31 2776 -6 1247 -16 2289 -21
2359 -30 376 -104 673 -235 935 -150 302 -365 522 -653 668 -171 88 -321 135
-562 179 l-125 22 -1372 4 -1373 3 0 -4401z m2157 2849 c222 -24 298 -77 351
-239 49 -149 47 -50 47 -2660 0 -2370 -1 -2457 -19 -2510 -40 -119 -114 -199
-220 -239 -78 -29 -188 -41 -372 -41 l-164 0 0 2850 0 2850 140 0 c78 0 184
-5 237 -11z"/>
<path d="M13190 18690 c-391 -37 -687 -133 -949 -307 -113 -75 -308 -271 -388
-389 -194 -286 -305 -633 -343 -1070 -8 -89 -10 -490 -8 -1294 4 -1136 4
-1168 25 -1297 42 -253 100 -449 193 -641 238 -494 640 -818 1167 -941 386
-90 883 -77 1247 34 289 87 513 222 718 431 263 268 427 588 507 991 55 276
56 294 56 1508 0 992 -2 1137 -17 1267 -67 576 -258 990 -595 1291 -237 210
-570 349 -969 402 -141 19 -509 27 -644 15z m471 -1168 c81 -32 132 -81 174
-165 73 -149 69 -57 72 -1571 4 -1488 6 -1422 -54 -1526 -46 -79 -140 -167
-219 -206 -84 -42 -194 -55 -285 -34 -170 40 -317 195 -349 372 -7 37 -9 505
-7 1404 3 1251 4 1354 21 1424 45 190 114 275 256 315 85 23 317 15 391 -13z"/>
<path d="M19765 15969 c-666 -31 -1153 -271 -1446 -714 -132 -199 -232 -456
-284 -733 -49 -259 -48 -227 -52 -1447 -3 -791 -1 -1191 7 -1280 49 -582 243
-1028 588 -1356 273 -260 606 -408 1040 -463 141 -18 456 -21 601 -6 675 71
1176 417 1457 1004 122 257 187 518 214 860 13 168 13 2106 0 2291 -25 362
-104 684 -224 924 -159 314 -402 564 -696 711 -239 120 -529 193 -815 205 -66
3 -145 7 -175 9 -30 1 -127 -1 -215 -5z m360 -1163 c70 -22 140 -68 170 -114
33 -51 70 -159 86 -254 17 -99 25 -2576 9 -2723 -17 -164 -91 -291 -215 -370
-83 -53 -142 -68 -258 -63 -89 3 -111 8 -170 35 -138 65 -241 201 -266 350 -9
49 -11 432 -8 1403 3 1233 4 1341 21 1410 24 101 70 200 114 243 43 42 132 85
200 97 68 13 259 4 317 -14z"/>
</g>
</svg>
